<svg width="99" height="100" viewBox="0 0 99 100" fill="none" xmlns="http://www.w3.org/2000/svg">
<path id="Vector" d="M45.1117 82.7201L45.3385 82.9421C45.8245 83.4374 46.035 83.799 46.1163 84.0656C46.1932 84.3178 46.19 84.5992 45.9866 85.04L45.9576 85.1032L45.9362 85.1697C45.7147 85.8459 45.3951 86.4853 44.9904 87.0699C41.7477 90.7456 38.3218 94.2553 34.7269 97.5872C33.8332 98.0387 32.8574 98.3063 31.8562 98.3672C30.806 98.431 29.7532 98.2688 28.7698 97.8919C27.7865 97.5151 26.8948 96.9323 26.155 96.1824C25.4195 95.4368 24.8519 94.5429 24.4882 93.5615C23.9508 91.8191 23.4534 90.2584 22.4599 89.1518C21.4415 88.0175 20.0492 87.4882 18.1257 87.2707L17.7338 87.2314C17.5144 87.2119 17.0791 87.0322 16.4615 86.5012C15.8775 85.9991 15.2585 85.2936 14.6818 84.4844C14.1078 83.679 13.5985 82.8037 13.2214 81.9836C12.8844 81.2506 12.6803 80.6182 12.6031 80.1484L12.5769 79.9574L12.5768 79.9519L12.5324 79.6036C12.4054 78.7935 12.1109 78.0029 11.5049 77.4172C10.8178 76.7532 9.91829 76.529 8.96797 76.5997L8.77688 76.6177L8.77481 76.6184C7.39531 76.7798 6.34856 76.3147 5.39055 75.4771C4.37524 74.5894 3.54617 73.3643 2.61169 72.0532L2.61099 72.0526C0.958488 69.7272 0.975725 67.6583 2.11843 66.2833L2.23236 66.1529C5.60271 62.4639 9.09932 58.8918 12.7155 55.4433C13.9548 54.2661 14.5678 54.1035 15.0416 54.1782C15.3288 54.2236 15.7116 54.3774 16.2521 54.755C16.7927 55.1326 17.4267 55.6874 18.2143 56.4584L31.1096 69.081C35.1671 73.0528 39.2147 77.0925 43.339 81.0368L45.1117 82.7201ZM16.0761 57.4156C16.0048 57.4238 15.9045 57.4281 15.7469 57.4281C15.6134 57.4281 15.4054 57.4243 15.2214 57.4303C15.0333 57.4364 14.7857 57.4532 14.5345 57.515C14.3161 57.5687 14.0252 57.6731 13.7596 57.8948L13.6556 57.9898C10.6603 60.9325 7.72458 63.9353 4.85106 66.9971L4.85037 66.9978C4.51894 67.3443 4.4293 67.7564 4.40054 68.006C4.37058 68.2662 4.38857 68.5199 4.40732 68.7055C4.42585 68.8889 4.45682 69.1014 4.47445 69.2358C4.48501 69.3165 4.49289 69.3822 4.498 69.4365L4.50562 69.5683L4.52161 70.9355L5.87657 70.7463C5.93548 70.7381 6.0195 70.7326 6.15606 70.7288C6.26931 70.7257 6.45679 70.7238 6.61997 70.7142C6.78907 70.7043 7.01385 70.6832 7.24396 70.6226C7.47396 70.562 7.78047 70.4438 8.05215 70.1906C9.58461 68.764 11.0331 67.2151 12.444 65.7738C13.9074 64.2787 15.4888 62.7466 16.9201 61.1101L16.9194 61.1095C17.3981 60.567 17.4113 59.8577 17.4154 59.5711C17.4181 59.3877 17.4113 59.184 17.4085 59.0505C17.4068 58.9727 17.4064 58.9083 17.4071 58.8537L17.4132 58.7162L17.5398 57.248L16.0761 57.4156ZM73.1166 54.166L48.0668 79.757L20.0192 52.3026L45.0691 26.7116L73.1166 54.166ZM45.4049 30.4129C44.6158 30.8182 43.8713 31.305 43.1844 31.8661L43.1344 31.9074L43.0893 31.9535C37.2153 37.9067 31.3768 43.8896 25.5309 49.8619C25.051 50.2774 24.6353 50.7623 24.297 51.2998L24.263 51.3526L24.2353 51.4088C24.0764 51.7317 24.0661 52.044 24.0764 52.2385C24.087 52.4395 24.1267 52.6232 24.1585 52.7521C24.1897 52.8787 24.2313 53.021 24.2541 53.1026L24.3017 53.2927L24.4656 54.2198L25.4048 54.2836C25.4444 54.2863 25.5016 54.2935 25.5998 54.3092C25.6803 54.322 25.8179 54.3455 25.9422 54.3614C26.1436 54.3873 26.6522 54.4515 27.1416 54.2209L27.1986 54.1933L27.2528 54.1603C27.7419 53.863 28.1755 53.4838 28.5364 53.0403C34.4901 46.9648 40.4575 40.8885 46.3908 34.7862L46.4291 34.7471L46.4625 34.7046L46.6444 34.4741C47.0616 33.9296 47.4261 33.3463 47.7321 32.7319L48.1147 31.9626L47.5129 31.3503L46.8133 30.6396L46.192 30.0081L45.4049 30.4129ZM87.3314 20.4302C87.0516 20.7075 86.818 21.0145 86.6362 21.3554C86.222 22.132 86.1223 22.9631 86.1499 23.7313C86.1772 24.4917 86.3331 25.2644 86.4948 25.9644C86.6662 26.7062 86.8347 27.3315 86.9555 27.9746L86.9629 28.0159L86.9737 28.0565C87.9434 31.7755 87.9589 35.6773 87.0203 39.4008C86.1404 42.8915 84.4488 46.1204 82.086 48.8253L81.6042 49.3594C81.3345 49.6478 81.0443 49.9163 80.7365 50.1635C79.7633 50.8975 79.0765 51.374 78.5128 51.652C77.9777 51.9159 77.6497 51.952 77.3692 51.9045C77.049 51.8503 76.6122 51.6571 75.9231 51.1258C75.2366 50.5966 74.4058 49.8183 73.2877 48.7239C65.4798 41.081 57.694 33.3907 49.8133 25.8004L52.719 23.6514C55.6564 21.4781 58.8411 19.6599 62.2056 18.2333C66.1399 17.4303 70.1453 17.0186 74.1621 17.0055L76.8028 16.9966L75.0641 15.009C74.9841 14.9176 74.9008 14.8287 74.8154 14.7424L74.551 14.4904L74.5475 14.487C73.117 13.218 71.024 12.7008 68.8519 12.6384C66.6475 12.5751 64.1801 12.973 61.8052 13.7226C59.4284 14.4728 57.0916 15.5923 55.159 17.0124C53.2363 18.4253 51.6371 20.1932 50.8735 22.2672L49.636 25.6297C49.18 25.1907 48.7244 24.7505 48.2678 24.3122C47.5097 23.5857 47.2344 23.1077 47.1485 22.778C47.0862 22.5388 47.0924 22.2604 47.284 21.8228L47.3779 21.6264L47.3779 21.625L47.5599 21.2757C49.464 17.696 52.1108 15.2939 55.3643 13.7984C58.7471 12.2434 62.8492 11.6405 67.5579 11.8076L67.5579 11.8063C69.0716 11.8711 70.5756 12.088 72.0466 12.453L72.0466 12.4544C73.2358 12.7515 74.6199 13.0504 75.884 12.8298C76.5492 12.7137 77.2001 12.4528 77.7767 11.974C77.9402 11.8382 78.0916 11.6875 78.2339 11.5251L87.3314 20.4302ZM94.2316 9.06003L96.4682 11.304L96.471 11.3067C97.2096 12.0501 97.5648 12.7282 97.6631 13.2635C97.7415 13.6903 97.6708 14.0837 97.4018 14.4644L97.2737 14.6274L97.2723 14.6288C95.8194 16.314 94.2438 17.8324 92.5685 19.5124L79.1533 6.38083C80.4967 4.98401 81.7119 3.68049 82.9985 2.44698L83.6693 1.8176L83.6706 1.81621C84.1995 1.32901 84.7196 1.16895 85.2429 1.22347C85.8057 1.28214 86.5434 1.60864 87.4118 2.43228L87.4118 2.43089C88.9448 3.88794 90.4662 5.35723 91.978 6.8363C92.7318 7.57418 93.4833 8.31537 94.2316 9.06003Z" fill="white" stroke="#0A0A7D" stroke-width="2.40764"/>
</svg>
