<svg width="108" height="124" viewBox="0 0 108 124" fill="none" xmlns="http://www.w3.org/2000/svg">
<g id="Carbon_foot_print">
<path id="Vector" d="M43.9875 30.3771H46.6581C49.2955 30.3737 51.8239 29.3244 53.6889 27.4595C55.5538 25.5945 56.6031 23.0661 56.6065 20.4287V20.3187H50.7868V20.4287C50.7851 21.5232 50.3496 22.5723 49.5756 23.3462C48.8017 24.1202 47.7526 24.5557 46.6581 24.5574H43.9875C42.893 24.5557 41.8438 24.1202 41.0699 23.3462C40.296 22.5723 39.8605 21.5232 39.8587 20.4287V10.1537C39.8613 9.05977 40.2972 8.01142 41.0711 7.2382C41.8449 6.46498 42.8936 6.02989 43.9875 6.02818H46.6581C47.7526 6.02989 48.8017 6.46543 49.5756 7.23935C50.3496 8.01327 50.7851 9.06244 50.7868 10.1569H56.6065C56.6031 7.51949 55.5538 4.99105 53.6889 3.1261C51.8239 1.26115 49.2955 0.211918 46.6581 0.208496H43.9875C41.3498 0.211064 38.8209 1.26002 36.9557 3.12516C35.0906 4.99029 34.0416 7.51922 34.0391 10.1569V20.4319C34.0425 23.069 35.0918 25.5971 36.9569 27.4616C38.8219 29.326 41.3504 30.3745 43.9875 30.3771Z" fill="#8E98A8"/>
<path id="Vector_2" d="M71.3267 30.3772C74.3183 30.3737 77.1863 29.1838 79.3017 27.0684C81.4171 24.9531 82.607 22.085 82.6104 19.0934V11.489C82.6104 10.0072 82.3185 8.53996 81.7515 7.17095C81.1844 5.80195 80.3533 4.55804 79.3055 3.51025C78.2577 2.46246 77.0138 1.63131 75.6448 1.06425C74.2758 0.497186 72.8085 0.205322 71.3267 0.205322C69.8449 0.205322 68.3776 0.497186 67.0086 1.06425C65.6396 1.63131 64.3957 2.46246 63.3479 3.51025C62.3001 4.55804 61.4689 5.80195 60.9019 7.17095C60.3348 8.53996 60.043 10.0072 60.043 11.489V19.0934C60.0455 22.0853 61.2352 24.9538 63.3507 27.0694C65.4663 29.1849 68.3348 30.3746 71.3267 30.3772ZM65.8627 11.489C65.8627 10.0399 66.4383 8.65009 67.463 7.62539C68.4877 6.60068 69.8775 6.02501 71.3267 6.02501C72.7758 6.02501 74.1656 6.60068 75.1903 7.62539C76.215 8.65009 76.7907 10.0399 76.7907 11.489V19.0934C76.7907 20.5426 76.215 21.9324 75.1903 22.9571C74.1656 23.9818 72.7758 24.5575 71.3267 24.5575C69.8775 24.5575 68.4877 23.9818 67.463 22.9571C66.4383 21.9324 65.8627 20.5426 65.8627 19.0934V11.489Z" fill="#8E98A8"/>
<path id="Vector_3" d="M96.9738 30.3579L91.4354 32.1168C89.9325 32.5944 88.65 33.5936 87.8194 34.934C86.9888 36.2744 86.6649 37.8677 86.9061 39.426C87.1473 40.9843 87.9379 42.4051 89.1349 43.4316C90.3319 44.4581 91.8566 45.0227 93.4335 45.0235H102.292V39.2039H93.4335C93.2464 39.2019 93.0661 39.1335 92.9248 39.011C92.7834 38.8884 92.6902 38.7195 92.6619 38.5346C92.6335 38.3497 92.6718 38.1607 92.7699 38.0014C92.868 37.8421 93.0195 37.7228 93.1974 37.6649L98.7358 35.906C100.158 35.4582 101.4 34.5676 102.281 33.3643C103.161 32.1609 103.634 30.7077 103.631 29.2166V28.528C103.628 26.6666 102.887 24.8822 101.571 23.5664C100.254 22.2505 98.4698 21.5105 96.6084 21.5088H93.8473C91.9865 21.5114 90.2026 22.2517 88.8868 23.5675C87.571 24.8833 86.8307 26.6672 86.8281 28.528V29.3783H92.6478V28.528C92.6487 28.2101 92.7753 27.9055 93.0001 27.6807C93.2248 27.456 93.5294 27.3293 93.8473 27.3285H96.6084C96.9269 27.3285 97.2323 27.4547 97.4577 27.6796C97.6832 27.9045 97.8103 28.2095 97.8112 28.528V29.2166C97.8117 29.4713 97.7307 29.7195 97.58 29.9249C97.4293 30.1303 97.2169 30.282 96.9738 30.3579Z" fill="#8E98A8"/>
<path id="Vector_4" d="M53.1227 43.9016C57.9689 43.9181 62.6804 45.4975 66.5574 48.4053C70.4343 51.313 73.2698 55.3938 74.6426 60.0415C75.1458 61.7905 76.209 63.3261 77.6692 64.4124C79.1293 65.4988 80.9057 66.0759 82.7255 66.0552H82.7708C85.0494 66.0557 87.3052 66.5099 89.4066 67.3912C91.508 68.2725 93.4129 69.5633 95.0103 71.1884C96.6076 72.8134 97.8655 74.7402 98.7106 76.8564C99.5557 78.9726 99.971 81.2359 99.9324 83.5143C99.8859 85.9049 99.3269 88.2577 98.2932 90.4138C100.188 90.8905 101.999 91.6537 103.663 92.677C104.982 89.8378 105.691 86.7541 105.746 83.6242C105.797 80.5734 105.241 77.543 104.109 74.7095C102.977 71.8759 101.293 69.2961 99.1536 67.1203C97.0145 64.9445 94.4637 63.2163 91.6499 62.0365C88.836 60.8567 85.8155 60.2489 82.7643 60.2485H82.7061C82.1477 60.2564 81.6022 60.0803 81.1539 59.7471C80.7057 59.414 80.3797 58.9425 80.2263 58.4056C78.5172 52.5385 74.9508 47.3844 70.0627 43.717C65.1747 40.0497 59.2287 38.0671 53.1178 38.0671C47.007 38.0671 41.061 40.0497 36.173 43.717C31.2849 47.3844 27.7185 52.5385 26.0094 58.4056C25.8507 58.938 25.522 59.4038 25.0737 59.7319C24.6253 60.06 24.0819 60.2323 23.5264 60.2226H23.4746C20.4218 60.2238 17.3998 60.8331 14.5849 62.0149C11.7701 63.1967 9.21889 64.9273 7.08016 67.1058C4.94143 69.2843 3.25803 71.8669 2.12823 74.703C0.998433 77.5391 0.444859 80.5718 0.49982 83.6242C0.706742 96.0783 11.1692 106.214 23.8077 106.214H33.0674C33.3901 104.184 34.0363 102.22 34.9814 100.395H23.8077C14.3183 100.395 6.47146 92.8258 6.31627 83.5272C6.27765 81.2488 6.69298 78.9856 7.53804 76.8694C8.3831 74.7532 9.64099 72.8264 11.2384 71.2013C12.8357 69.5762 14.7406 68.2854 16.842 67.4041C18.9434 66.5228 21.1992 66.0687 23.4779 66.0681H23.5361C24.1072 66.0672 24.6769 66.0098 25.2367 65.8968C27.2953 68.0881 28.4551 70.9732 28.486 73.9797L35.059 73.7922C35.0011 69.5195 33.4501 65.4019 30.6749 62.1528C31.0756 61.5059 31.3867 60.8077 31.5996 60.0771C32.9666 55.4225 35.7999 51.3337 39.678 48.4192C43.5561 45.5047 48.2716 43.9202 53.1227 43.9016Z" fill="#8E98A8"/>
<path id="Vector_5" d="M94.1973 95.37C92.8774 96.346 91.8012 97.6142 91.053 99.0753C90.3048 100.536 89.9048 102.151 89.8843 103.792L84.0646 103.627C84.0953 101.36 84.6002 99.1247 85.5468 97.0644C86.4934 95.0042 87.8608 93.1648 89.5609 91.6648C88.3128 88.1496 85.9823 85.1206 82.9044 83.0133C79.8265 80.906 76.1597 79.8288 72.431 79.9366C68.7024 80.0444 65.1039 81.3316 62.1529 83.6132C59.2019 85.8948 57.0502 89.0533 56.0072 92.6347C55.7739 93.4277 55.2885 94.123 54.6246 94.6154C53.9607 95.1078 53.1544 95.3704 52.3279 95.3635H52.2956C50.4389 95.3632 48.6009 95.7328 46.8887 96.4507C45.1765 97.1686 43.6245 98.2205 42.3233 99.5449C41.0221 100.869 39.9978 102.44 39.3102 104.164C38.6227 105.889 38.2856 107.733 38.3186 109.589C38.4447 117.255 44.8593 123.33 52.5251 123.33H93.3437C101.01 123.33 107.424 117.255 107.553 109.589C107.62 105.946 106.261 102.42 103.766 99.7641C101.272 97.1079 97.8379 95.5312 94.1973 95.37Z" fill="#8E98A8"/>
</g>
</svg>
