<svg width="36" height="35" viewBox="0 0 36 35" fill="none" xmlns="http://www.w3.org/2000/svg">
<path id="Vector" d="M28.194 27.7387C26.2998 27.7387 24.7811 29.2574 24.7811 31.1516C24.7811 32.0568 25.1407 32.9249 25.7807 33.5649C26.4208 34.205 27.2889 34.5645 28.194 34.5645C29.0992 34.5645 29.9673 34.205 30.6073 33.5649C31.2474 32.9249 31.6069 32.0568 31.6069 31.1516C31.6069 30.2465 31.2474 29.3784 30.6073 28.7383C29.9673 28.0983 29.0992 27.7387 28.194 27.7387ZM0.890625 0.435303V3.84823H4.30355L10.4468 16.8003L8.12602 20.9811C7.87005 21.4589 7.71647 22.022 7.71647 22.6193C7.71647 23.5245 8.07605 24.3926 8.7161 25.0326C9.35614 25.6727 10.2242 26.0322 11.1294 26.0322H31.6069V22.6193H11.8461C11.733 22.6193 11.6245 22.5744 11.5444 22.4944C11.4644 22.4144 11.4195 22.3058 11.4195 22.1927C11.4195 22.1074 11.4366 22.0391 11.4707 21.9879L13.0065 19.2064H25.7196C26.9995 19.2064 28.1258 18.4897 28.706 17.4487L34.8151 6.40792C34.9345 6.13489 35.0199 5.84479 35.0199 5.55469C35.0199 5.10211 34.8401 4.66806 34.5201 4.34804C34.2 4.02801 33.766 3.84823 33.3134 3.84823H8.07483L6.47076 0.435303M11.1294 27.7387C9.23522 27.7387 7.71647 29.2574 7.71647 31.1516C7.71647 32.0568 8.07605 32.9249 8.7161 33.5649C9.35614 34.205 10.2242 34.5645 11.1294 34.5645C12.0346 34.5645 12.9027 34.205 13.5427 33.5649C14.1827 32.9249 14.5423 32.0568 14.5423 31.1516C14.5423 30.2465 14.1827 29.3784 13.5427 28.7383C12.9027 28.0983 12.0346 27.7387 11.1294 27.7387Z" fill="white"/>
</svg>
