<svg width="135" height="98" viewBox="0 0 135 98" fill="none" xmlns="http://www.w3.org/2000/svg">
<g id="Group">
<path id="Vector" d="M106.028 1.1994C102.499 3.2015 98.2369 4.85985 94.4499 4.22776C88.4788 3.23432 73.0883 3.29998 62.8727 7.01373C52.6572 10.7272 34.0839 22.3357 28.5125 24.1965C22.9385 26.052 22.4755 33.4843 35.012 34.8748C47.5508 36.27 58.6942 28.3727 61.4799 26.9822C64.2659 25.587 91.1989 29.7682 91.1989 29.7682L99.6726 31.8561L119.209 58.2636C122.637 55.2857 129.417 48.9659 131.133 44.1628C131.758 42.4133 132.688 40.8057 133.712 39.3771L133.927 39.6728C138.525 29.3942 118.807 -3.31057 106.028 1.1994Z" fill="#46786E"/>
<path id="Vector_2" d="M94.4528 35.6888L90.3472 35.2744C84.9602 34.4401 69.7265 32.271 64.0056 32.271C63.7556 32.271 63.5558 32.2736 63.4066 32.281C63.1766 32.4125 62.9111 32.5641 62.6509 32.7158C58.5907 35.0796 49.0858 40.6134 38.0131 40.6134C36.7972 40.6134 35.5834 40.5451 34.4007 40.4136C32.606 40.214 31.0283 39.9054 29.6328 39.516C30.955 40.095 32.1709 40.9241 33.215 41.9884C34.8505 43.662 35.8668 45.7148 36.2688 47.861C37.2221 47.6055 38.2103 47.464 39.2216 47.464C42.3208 47.464 45.2179 48.6825 47.3844 50.897C49.5157 53.0761 50.6735 55.9579 50.6407 59.0068C50.6407 59.037 50.6354 59.0677 50.6354 59.0979C53.7194 59.1079 56.6065 60.3263 58.7654 62.5309C60.899 64.71 62.0569 67.5918 62.024 70.6407C62.0114 71.6921 61.8497 72.7187 61.5666 73.7047C63.7556 74.1622 65.7604 75.2517 67.363 76.8899C71.7669 81.3922 71.6884 88.6349 67.1887 93.0387L64.9337 95.243C64.9437 95.243 64.9565 95.243 64.9665 95.243C68.7509 94.9699 71.9413 92.6343 72.8336 89.1152C74.3756 90.331 76.3171 91.0616 78.4331 91.0616C83.4334 91.0616 87.4883 87.0093 87.4883 82.0065C87.4883 81.4807 87.4326 80.97 87.3467 80.4692C88.9397 81.8573 91.0148 82.7039 93.2926 82.7039C98.2931 82.7039 102.348 78.6491 102.348 73.6488C103.42 74.096 104.595 74.3463 105.829 74.3463C110.829 74.3463 114.884 70.2914 114.884 65.2912C114.884 61.4942 113.026 59.0217 108.615 53.9151L94.4528 35.6888Z" fill="#46786E"/>
<path id="Vector_3" d="M29.2295 45.8869C26.9695 43.5789 23.2686 43.5382 20.9606 45.7958L12.6056 53.9738C10.2975 56.2315 10.2571 59.9323 12.5147 62.2404C14.7723 64.5484 18.4732 64.5888 20.7815 62.3286L29.1389 54.1532C31.4466 51.8959 31.4871 48.195 29.2295 45.8869Z" fill="#46786E"/>
<path id="Vector_4" d="M43.4011 54.7953C41.1435 52.4846 37.4426 52.4442 35.1343 54.7042L23.9909 65.6049C21.6829 67.8649 21.6451 71.5658 23.9027 73.8712C26.16 76.1818 29.8609 76.222 32.1716 73.9623L43.3123 63.0616C45.6206 60.8042 45.6611 57.1033 43.4011 54.7953Z" fill="#46786E"/>
<path id="Vector_5" d="M54.7805 66.4291C52.5232 64.121 48.8223 64.078 46.5142 66.3382L35.3709 77.2413C33.0628 79.4986 33.0224 83.1995 35.2824 85.5102C37.54 87.8156 41.2409 87.8563 43.5492 85.596L54.6925 74.6953C57.0003 72.4356 57.0378 68.7345 54.7805 66.4291Z" fill="#46786E"/>
<path id="Vector_6" d="M63.3794 80.788C61.1194 78.48 57.4185 78.4369 55.1131 80.6969L48.6134 87.0574C46.3053 89.3148 46.2649 93.0156 48.5225 95.3237C50.7799 97.6317 54.4834 97.6698 56.7914 95.4148L63.2909 89.0545C65.5965 86.7969 65.637 83.096 63.3794 80.788Z" fill="#46786E"/>
<path id="Vector_7" d="M25.0506 38.5555C25.9303 38.5555 26.7898 38.6668 27.6241 38.8562C20.6039 36.164 19.4411 31.2396 19.2564 29.5027C18.7609 24.8257 21.7743 20.5663 26.7493 18.908C28.7517 18.2407 34.0022 15.3788 39.076 12.6133C44.5214 9.64274 50.4975 6.38434 55.6976 3.98755C49.1093 3.45446 42.9363 3.67925 39.6372 4.22783C36.0902 4.81922 32.1264 3.40115 28.7365 1.57605C15.9573 -2.93628 -3.76084 29.7682 0.837627 40.0497C1.67429 41.306 2.42533 42.6813 2.95369 44.1629C3.73468 46.347 5.56477 48.8446 7.65064 51.2007C7.97679 50.7811 8.32317 50.3714 8.70999 49.9896L17.065 41.8118C19.2134 39.7133 22.0471 38.5555 25.0506 38.5555Z" fill="#46786E"/>
</g>
</svg>
