<svg width="19" height="19" viewBox="0 0 19 19" fill="none" xmlns="http://www.w3.org/2000/svg">
<g id="Instagram icon">
<path id="Vector" d="M13.2344 1.38867H4.90104C2.59986 1.38867 0.734375 3.25415 0.734375 5.55534V13.8887C0.734375 16.1899 2.59986 18.0553 4.90104 18.0553H13.2344C15.5356 18.0553 17.401 16.1899 17.401 13.8887V5.55534C17.401 3.25415 15.5356 1.38867 13.2344 1.38867Z" fill="black" stroke="black" stroke-width="1.30441" stroke-linecap="round" stroke-linejoin="round"/>
<path id="Vector_2" d="M12.4001 9.19693C12.503 9.89047 12.3845 10.5988 12.0616 11.2211C11.7387 11.8434 11.2278 12.3481 10.6015 12.6633C9.97523 12.9785 9.26552 13.0883 8.5733 12.9769C7.88108 12.8655 7.24161 12.5387 6.74585 12.0429C6.25008 11.5471 5.92326 10.9077 5.81187 10.2154C5.70048 9.52322 5.8102 8.81351 6.12542 8.18724C6.44064 7.56098 6.9453 7.05005 7.56763 6.72713C8.18997 6.40422 8.89827 6.28575 9.59181 6.3886C10.2992 6.4935 10.9542 6.82315 11.4599 7.32885C11.9656 7.83456 12.2952 8.4895 12.4001 9.19693Z" fill="white"/>
<path id="Vector_3" d="M13.6523 5.13867H13.6608" stroke="white" stroke-width="1.30441" stroke-linecap="round" stroke-linejoin="round"/>
</g>
</svg>
