<svg width="38" height="39" viewBox="0 0 38 39" fill="none" xmlns="http://www.w3.org/2000/svg">
<path id="Vector" fill-rule="evenodd" clip-rule="evenodd" d="M18.7059 0.813599C21.1598 0.813587 23.5897 1.29691 25.8568 2.23599C28.124 3.17506 30.184 4.55148 31.9192 6.28667C33.6544 8.02186 35.0308 10.0818 35.9699 12.349C36.9089 14.6161 37.3923 17.046 37.3923 19.4999C37.3923 29.8201 29.0261 38.1864 18.7059 38.1864C8.38574 38.1864 0.0195312 29.8201 0.0195312 19.4999C0.0195312 9.17981 8.38574 0.813599 18.7059 0.813599ZM20.5746 21.3686H16.8373C12.2111 21.3686 8.23937 24.1704 6.52633 28.17C9.23678 31.9707 13.6819 34.4491 18.7059 34.4491C23.7298 34.4491 28.1749 31.9707 30.8855 28.1697C29.1724 24.1704 25.2008 21.3686 20.5746 21.3686ZM18.7059 6.41951C15.6098 6.41951 13.1 8.92938 13.1 12.0254C13.1 15.1215 15.6098 17.6313 18.7059 17.6313C21.8019 17.6313 24.3118 15.1215 24.3118 12.0254C24.3118 8.92938 21.802 6.41951 18.7059 6.41951Z" fill="white"/>
</svg>
