<svg width="22" height="22" viewBox="0 0 22 22" fill="none" xmlns="http://www.w3.org/2000/svg">
<g id="stash:search">
<path id="Vector" d="M9.61935 3.125C8.5718 3.125 7.53972 3.37781 6.61075 3.86193C5.68179 4.34606 4.88337 5.04722 4.2833 5.90587C3.68323 6.76452 3.29924 7.75529 3.16392 8.79407C3.0286 9.83284 3.14596 10.8889 3.50603 11.8726C3.8661 12.8564 4.45824 13.7387 5.23218 14.4446C6.00611 15.1506 6.93898 15.6594 7.95157 15.9277C8.96416 16.1961 10.0266 16.2162 11.0486 15.9862C12.0705 15.7562 13.0219 15.283 13.822 14.6067C13.8027 14.8439 13.8832 15.088 14.0652 15.2691L17.4252 18.6291C17.5828 18.7867 17.7965 18.8752 18.0193 18.8752C18.2422 18.8752 18.4559 18.7867 18.6135 18.6291C18.771 18.4716 18.8596 18.2578 18.8596 18.035C18.8596 17.8122 18.771 17.5984 18.6135 17.4409L15.2535 14.0809C15.1673 13.9947 15.0634 13.9283 14.9491 13.8863C14.8347 13.8443 14.7125 13.8277 14.5911 13.8376C15.3924 12.8897 15.906 11.7324 16.0713 10.5023C16.2367 9.27213 16.0469 8.02034 15.5244 6.89446C15.0019 5.76858 14.1684 4.81554 13.1222 4.14769C12.0759 3.47983 10.8606 3.125 9.61935 3.125ZM4.36935 9.635C4.36935 8.94556 4.50514 8.26287 4.76898 7.62591C5.03282 6.98895 5.41953 6.4102 5.90704 5.92269C6.39454 5.43518 6.9733 5.04847 7.61026 4.78463C8.24722 4.5208 8.92991 4.385 9.61935 4.385C10.3088 4.385 10.9915 4.5208 11.6284 4.78463C12.2654 5.04847 12.8441 5.43518 13.3317 5.92269C13.8192 6.4102 14.2059 6.98895 14.4697 7.62591C14.7336 8.26287 14.8693 8.94556 14.8693 9.635C14.8693 11.0274 14.3162 12.3627 13.3317 13.3473C12.3471 14.3319 11.0117 14.885 9.61935 14.885C8.22696 14.885 6.8916 14.3319 5.90704 13.3473C4.92247 12.3627 4.36935 11.0274 4.36935 9.635Z" fill="#838080"/>
</g>
</svg>
