<svg width="28" height="21" viewBox="0 0 28 21" fill="none" xmlns="http://www.w3.org/2000/svg">
<path id="Vector" d="M15.5703 0.559592C15.9287 0.201285 16.4147 0 16.9215 0C17.4283 0 17.9144 0.201285 18.2728 0.559592L26.8735 9.16028C27.2318 9.51869 27.4331 10.0047 27.4331 10.5115C27.4331 11.0183 27.2318 11.5044 26.8735 11.8628L18.2728 20.4635C17.9123 20.8116 17.4295 21.0043 16.9284 20.9999C16.4273 20.9956 15.9479 20.7946 15.5935 20.4402C15.2392 20.0858 15.0382 19.6065 15.0338 19.1053C15.0295 18.6042 15.2221 18.1214 15.5703 17.761L20.744 12.4228H2.58704C2.08015 12.4228 1.59401 12.2214 1.23558 11.863C0.877146 11.5046 0.675781 11.0184 0.675781 10.5115C0.675781 10.0046 0.877146 9.5185 1.23558 9.16007C1.59401 8.80164 2.08015 8.60028 2.58704 8.60028H20.744L15.5703 3.26212C15.2119 2.9037 15.0107 2.41765 15.0107 1.91085C15.0107 1.40406 15.2119 0.918007 15.5703 0.559592Z" fill="white"/>
</svg>
