<svg width="21" height="15" viewBox="0 0 21 15" fill="none" xmlns="http://www.w3.org/2000/svg">
<g id="Youtube icon">
<path id="Vector" d="M19.6477 2.80976C19.5397 2.40046 19.3198 2.02544 19.0102 1.72258C18.7005 1.41972 18.3121 1.19975 17.8842 1.08488C16.3206 0.722656 10.0664 0.722656 10.0664 0.722656C10.0664 0.722656 3.81219 0.722656 2.24863 1.11938C1.8207 1.23424 1.43229 1.45421 1.12264 1.75707C0.812993 2.05993 0.59307 2.43495 0.485086 2.84426C0.198932 4.3497 0.058959 5.87687 0.0669259 7.40657C0.0567258 8.94779 0.196708 10.4866 0.485086 12.0034C0.604134 12.4 0.828983 12.7607 1.13791 13.0508C1.44684 13.3409 1.8294 13.5504 2.24863 13.6593C3.81219 14.056 10.0664 14.056 10.0664 14.056C10.0664 14.056 16.3206 14.056 17.8842 13.6593C18.3121 13.5444 18.7005 13.3244 19.0102 13.0216C19.3198 12.7187 19.5397 12.3437 19.6477 11.9344C19.9317 10.4403 20.0716 8.92476 20.0659 7.40657C20.0761 5.86535 19.9361 4.32654 19.6477 2.80976Z" fill="black"/>
<path id="Vector_2" d="M8.01953 10.2258L13.2465 7.40563L8.01953 4.58545V10.2258Z" fill="white"/>
</g>
</svg>
